# xmcd
#
# Track frame offsets:
#	193
#	10543
#	20528
#	32833
#	43890
#	58870
#	71028
#	83308
#	92438
#	102275
#	115993
#	122738
#	132193
#	141538
#	153778
#	170835
#	183218
#	194543
#	204908
#	221503
#
# Disc length: 3116 seconds
#
# Revision: 1
# Processed by: cddbd v1.5.2PL0 Copyright (c) Steve Scherf et al.
# Submitted via: audiograbber 1.83.01
#
DISCID=140c2a14
DTITLE=Country Gold - Country Gold - Vol. 5
DYEAR=1993
DGENRE=Country
TTITLE0=Willie Nelson - Broken Promises
TTITLE1=Kitty Wells - Release Me
TTITLE2=George Jones - Least Of All
TTITLE3=Roger Miller - Husbands And Wives
TTITLE4=Ernest Tubb and Marty Robbins - Rainbow At Midnight
TTITLE5=Willie Nelson - Happiness Lives Next Door
TTITLE6=Kitty Wells - Lonely Side Of Town
TTITLE7=Roger Miller - Chug - A - Lug
TTITLE8=George Jones - World´s Worst Loser
TTITLE9=Faron Young - It´s Four In The Morning
TTITLE10=Waylon Jennings - It´s So Easy
TTITLE11=Patsy Cline - Love Me, Love Me, Honey Do
TTITLE12=Ernest Tubb and Mell Tills - Have You Ever Been Lonely ( Have You Ever
TTITLE12=Been Blue )
TTITLE13=Johnny Paycheck - She Still Thinks A Care
TTITLE14=Donna Fargo - Battle Hymn Of The Republic
TTITLE15=Johnny Cash - Here Was A Man
TTITLE16=Patsy Cline - Just Out Of Reach
TTITLE17=Waylon Jennigs - Lorena
TTITLE18=Donna Fargo - The House Of The Rising Sun
TTITLE19=Johnny Paycheck - Me And The IRS
EXTD=YEAR: 1993 ID3G: 2
EXTT0=
EXTT1=
EXTT2=
EXTT3=
EXTT4=
EXTT5=
EXTT6=
EXTT7=
EXTT8=
EXTT9=
EXTT10=
EXTT11=
EXTT12=
EXTT13=
EXTT14=
EXTT15=
EXTT16=
EXTT17=
EXTT18=
EXTT19=
PLAYORDER=
